<svg width="18" height="23" viewBox="0 0 18 23" fill="none" xmlns="http://www.w3.org/2000/svg">
<g clip-path="url(#clip0_66_155)">
<path d="M9.00382 6.11364C6.44846 6.11364 4.3873 8.33798 4.3873 11.0956C4.3873 13.8533 6.44846 16.0776 9.00382 16.0776C11.5592 16.0776 13.6203 13.8533 13.6203 11.0956C13.6203 8.33798 11.5592 6.11364 9.00382 6.11364ZM9.00382 14.3346C7.35248 14.3346 6.00248 12.882 6.00248 11.0956C6.00248 9.30922 7.34846 7.85669 9.00382 7.85669C10.6592 7.85669 12.0052 9.30922 12.0052 11.0956C12.0052 12.882 10.6552 14.3346 9.00382 14.3346ZM14.886 5.90985C14.886 6.55591 14.4038 7.07188 13.8092 7.07188C13.2105 7.07188 12.7324 6.55157 12.7324 5.90985C12.7324 5.26813 13.2145 4.74782 13.8092 4.74782C14.4038 4.74782 14.886 5.26813 14.886 5.90985ZM17.9436 7.08923C17.8752 5.53263 17.5458 4.1538 16.4891 3.01778C15.4364 1.88177 14.1587 1.52622 12.7163 1.44817C11.2297 1.35712 6.77391 1.35712 5.2873 1.44817C3.84891 1.52188 2.57123 1.87743 1.51453 3.01345C0.457833 4.14946 0.132387 5.52829 0.0600655 7.08489C-0.0243095 8.68919 -0.0243095 13.4977 0.0600655 15.102C0.128369 16.6586 0.457833 18.0375 1.51453 19.1735C2.57123 20.3095 3.84489 20.665 5.2873 20.7431C6.77391 20.8341 11.2297 20.8341 12.7163 20.7431C14.1587 20.6694 15.4364 20.3138 16.4891 19.1735C17.5418 18.0375 17.8712 16.6586 17.9436 15.102C18.0279 13.4977 18.0279 8.69352 17.9436 7.08923ZM16.023 16.8234C15.7096 17.6732 15.1029 18.328 14.3114 18.6705C13.1261 19.1778 10.3136 19.0607 9.00382 19.0607C7.694 19.0607 4.87748 19.1735 3.69623 18.6705C2.90873 18.3323 2.30203 17.6776 1.98462 16.8234C1.51453 15.5443 1.62301 12.5091 1.62301 11.0956C1.62301 9.68212 1.51855 6.64262 1.98462 5.36786C2.29801 4.51802 2.90471 3.86329 3.69623 3.52075C4.88149 3.01345 7.694 3.13052 9.00382 3.13052C10.3136 3.13052 13.1302 3.01778 14.3114 3.52075C15.0989 3.85895 15.7056 4.51368 16.023 5.36786C16.4931 6.64696 16.3846 9.68212 16.3846 11.0956C16.3846 12.5091 16.4931 15.5486 16.023 16.8234Z" fill="#3EA1D1"/>
</g>
<defs>
<clipPath id="clip0_66_155">
<rect width="18" height="22.2" fill="white"/>
</clipPath>
</defs>
</svg>
