<svg width="21" height="22" viewBox="0 0 21 22" fill="none" xmlns="http://www.w3.org/2000/svg">
<path d="M18.8413 6.82288C18.8547 7.00942 18.8547 7.196 18.8547 7.38254C18.8547 13.0722 14.5241 19.6281 6.60913 19.6281C4.17067 19.6281 1.90546 18.9218 0 17.696C0.346459 17.7359 0.679547 17.7493 1.03934 17.7493C3.05136 17.7493 4.90354 17.0697 6.3826 15.9105C4.49047 15.8705 2.90481 14.6313 2.35848 12.9257C2.625 12.9656 2.89148 12.9923 3.17133 12.9923C3.55774 12.9923 3.94419 12.939 4.30393 12.8457C2.33186 12.446 0.852756 10.7137 0.852756 8.62174V8.56846C1.4257 8.88826 2.092 9.08813 2.79817 9.11475C1.6389 8.34189 0.879416 7.02275 0.879416 5.53035C0.879416 4.73088 1.09257 3.99801 1.46569 3.35841C3.58436 5.97008 6.76901 7.67563 10.34 7.86222C10.2734 7.54242 10.2334 7.20933 10.2334 6.8762C10.2334 4.50435 12.1522 2.57227 14.5374 2.57227C15.7766 2.57227 16.8959 3.09193 17.682 3.9314C18.6547 3.74486 19.5875 3.38507 20.4136 2.89206C20.0938 3.89145 19.4143 4.73092 18.5215 5.26388C19.3876 5.17065 20.2271 4.93075 20.9999 4.59766C20.4137 5.45041 19.6808 6.2099 18.8413 6.82288Z" fill="#3EA1D1"/>
</svg>
